<?xml version="1.0" encoding="utf-8"?>
<svg id="logo-53" width="169" height="42" viewBox="0 0 169 42" fill="none" xmlns="http://www.w3.org/2000/svg">
  <path fill-rule="evenodd" clip-rule="evenodd" d="M20.6842 0.961929C31.946 0.961929 41.0755 10.0914 41.0755 21.3532C41.0755 32.6151 31.946 41.7446 20.6842 41.7446C9.42234 41.7446 0.292847 32.6151 0.292847 21.3532C0.292847 10.0914 9.42234 0.961929 20.6842 0.961929ZM40.2928 21.3532C40.2928 10.5237 31.5137 1.74455 20.6842 1.74455C19.8106 1.74455 18.9505 1.80167 18.1071 1.91238C18.652 1.86474 19.2034 1.84042 19.7606 1.84042C30.1088 1.84042 38.4977 10.2293 38.4977 20.5775C38.4977 30.9256 30.1088 39.3145 19.7606 39.3145C9.96366 39.3145 1.92284 31.7956 1.09401 22.2135C1.54426 32.6439 10.1428 40.9619 20.6842 40.9619C31.5137 40.9619 40.2928 32.1828 40.2928 21.3532ZM37.715 20.5775C37.715 10.6615 29.6766 2.62305 19.7606 2.62305C18.9555 2.62305 18.1627 2.67605 17.3856 2.77874C17.8641 2.73848 18.3482 2.71794 18.8371 2.71794C28.2717 2.71794 35.9199 10.3662 35.9199 19.8007C35.9199 29.2353 28.2717 36.8835 18.8371 36.8835C9.91648 36.8835 2.59287 30.0458 1.8215 21.3256C2.21369 30.8946 10.0953 38.5319 19.7606 38.5319C29.6766 38.5319 37.715 30.4934 37.715 20.5775ZM18.8371 3.50057C27.8394 3.50057 35.1373 10.7984 35.1373 19.8007C35.1373 28.803 27.8394 36.1008 18.8371 36.1008C10.0434 36.1008 2.87602 29.1372 2.54867 20.4235C3.25542 28.2885 9.86471 34.4524 17.9137 34.4524C26.434 34.4524 33.3412 27.5453 33.3412 19.0249C33.3412 10.5045 26.434 3.59741 17.9137 3.59741C17.4729 3.59741 17.0364 3.6159 16.605 3.65213C17.3348 3.5522 18.0799 3.50057 18.8371 3.50057ZM32.5585 19.0249C32.5585 10.9368 26.0018 4.38004 17.9137 4.38004C17.2303 4.38004 16.5578 4.42684 15.8994 4.51742C16.2589 4.48928 16.6223 4.47495 16.9891 4.47495C24.5959 4.47495 30.7624 10.6414 30.7624 18.2482C30.7624 25.8549 24.5959 32.0214 16.9891 32.0214C9.82947 32.0214 3.94576 26.5585 3.27885 19.5736C3.56738 27.4075 10.0092 33.6698 17.9137 33.6698C26.0018 33.6698 32.5585 27.1131 32.5585 19.0249ZM16.9891 5.25757C24.1636 5.25757 29.9797 11.0737 29.9797 18.2482C29.9797 25.4227 24.1636 31.2388 16.9891 31.2388C9.95594 31.2388 4.2282 25.6496 4.00526 18.6706C4.60739 24.8008 9.77718 29.5904 16.0656 29.5904C22.7588 29.5904 28.1846 24.1645 28.1846 17.4714C28.1846 10.7783 22.7588 5.35246 16.0656 5.35246C15.7587 5.35246 15.4544 5.36387 15.1532 5.38629C15.753 5.30145 16.3659 5.25757 16.9891 5.25757ZM27.402 17.4714C27.402 11.2105 22.3265 6.13509 16.0656 6.13509C15.4941 6.13509 14.9325 6.17738 14.3837 6.259C14.6342 6.24106 14.8871 6.23193 15.1422 6.23193C20.9211 6.23193 25.6059 10.9167 25.6059 16.6956C25.6059 22.4746 20.9211 27.1593 15.1422 27.1593C9.72697 27.1593 5.27257 23.0458 4.73324 17.773C4.89313 23.8945 9.90561 28.8078 16.0656 28.8078C22.3265 28.8078 27.402 23.7323 27.402 17.4714ZM15.1422 7.01456C20.4889 7.01456 24.8232 11.3489 24.8232 16.6956C24.8232 22.0424 20.4889 26.3767 15.1422 26.3767C9.86348 26.3767 5.57156 22.152 5.46317 16.8993C5.9508 21.3032 9.68475 24.7283 14.2187 24.7283C19.084 24.7283 23.0281 20.7842 23.0281 15.9189C23.0281 11.0536 19.084 7.10945 14.2187 7.10945C14.0326 7.10945 13.8479 7.11522 13.6647 7.12659C14.1464 7.05282 14.6398 7.01456 15.1422 7.01456ZM22.2455 15.9189C22.2455 11.4858 18.6518 7.89208 14.2187 7.89208C13.7735 7.89208 13.3368 7.92832 12.9113 7.99801C13.0381 7.99133 13.1657 7.98795 13.2942 7.98795C17.2458 7.98795 20.4493 11.1914 20.4493 15.1431C20.4493 19.0948 17.2458 22.2983 13.2942 22.2983C9.64023 22.2983 6.626 19.5593 6.19252 16.0225C6.24802 20.4079 9.8202 23.9457 14.2187 23.9457C18.6518 23.9457 22.2455 20.352 22.2455 15.9189ZM13.2942 8.77057C16.8136 8.77057 19.6667 11.6236 19.6667 15.1431C19.6667 18.6626 16.8136 21.5156 13.2942 21.5156C9.77471 21.5156 6.92163 18.6626 6.92163 15.1431C6.92163 15.1347 6.92165 15.1262 6.92168 15.1178C7.2881 17.7998 9.58806 19.8663 12.3707 19.8663C15.4082 19.8663 17.8706 17.4039 17.8706 14.3664C17.8706 11.3288 15.4082 8.86646 12.3707 8.86646C12.302 8.86646 12.2336 8.86771 12.1655 8.87021C12.5318 8.80474 12.909 8.77057 13.2942 8.77057ZM17.0879 14.3664C17.0879 11.7611 14.976 9.64908 12.3707 9.64908C9.7654 9.64908 7.6534 11.7611 7.6534 14.3664C7.6534 16.9716 9.7654 19.0836 12.3707 19.0836C14.976 19.0836 17.0879 16.9716 17.0879 14.3664Z" class="cneutral" fill="#1A1414"/>
  <text style="fill: rgb(51, 51, 51); font-family: Arial, sans-serif; font-size: 20px; white-space: pre;" x="44.481" y="28.437">Ken Skversky</text>
</svg>